HIERARCHY
ROOT root
{
	OFFSET	0	13.1	24.9
	CHANNELS 6  Xposition Yposition Zposition Xrotation Yrotation Zrotation
	JOINT spine_1
	{
		OFFSET	0	9.99999	0
		CHANNELS 3  Xrotation Yrotation Zrotation
		JOINT spine_2
		{
			OFFSET	0	112	-10
			CHANNELS 3  Xrotation Yrotation Zrotation
			JOINT spine_3
			{
				OFFSET	0	206.5	19.3
				CHANNELS 3  Xrotation Yrotation Zrotation
				JOINT spine_4
				{
					OFFSET	0	110.4	14.6
					CHANNELS 3  Xrotation Yrotation Zrotation
					JOINT neck_1
					{
						OFFSET	0	71.8	-50.3
						CHANNELS 3  Xrotation Yrotation Zrotation
						JOINT neck_2
						{
							OFFSET	0	86.2	-25.8
							CHANNELS 3  Xrotation Yrotation Zrotation
							JOINT head_ee
							{
								OFFSET	0	179.8	-8.7
								CHANNELS 3  Xrotation Yrotation Zrotation
								End Site
								{
									OFFSET	1	0	0
								}
							}
						}
					}
					JOINT left_clavicle
					{
						OFFSET	-43.2	22.4	-70.8
						CHANNELS 3  Xrotation Yrotation Zrotation
						JOINT left_shoulder
						{
							OFFSET	-93.9	-5.79999	48.7
							CHANNELS 3  Xrotation Yrotation Zrotation
							JOINT left_elbow
							{
								OFFSET	-291.4	-30.8	15.2
								CHANNELS 3  Xrotation Yrotation Zrotation
								JOINT left_lowarm_twist
								{
									OFFSET	-110.7	-3.89999	13.6
									CHANNELS 3  Xrotation Yrotation Zrotation
									JOINT left_hand
									{
										OFFSET	-110.7	-3.89999	13.6
										CHANNELS 3  Xrotation Yrotation Zrotation
										JOINT left_ee
										{
											OFFSET	-80.8	-5.10001	12.1
											CHANNELS 3  Xrotation Yrotation Zrotation
											End Site
											{
												OFFSET	1	0	0
											}
										}
									}
								}
							}
						}
					}
					JOINT right_clavicle
					{
						OFFSET	43.2	22.4	-70.8
						CHANNELS 3  Xrotation Yrotation Zrotation
						JOINT right_shoulder
						{
							OFFSET	93.9	-5.79999	48.7
							CHANNELS 3  Xrotation Yrotation Zrotation
							JOINT right_elbow
							{
								OFFSET	291.4	-30.8	15.2
								CHANNELS 3  Xrotation Yrotation Zrotation
								JOINT right_lowarm_twist
								{
									OFFSET	110.7	-3.89999	13.6
									CHANNELS 3  Xrotation Yrotation Zrotation
									JOINT right_hand
									{
										OFFSET	110.7	-3.89999	13.6
										CHANNELS 3  Xrotation Yrotation Zrotation
										JOINT right_ee
										{
											OFFSET	80.8	-5.10001	12.1
											CHANNELS 3  Xrotation Yrotation Zrotation
											End Site
											{
												OFFSET	1	0	0
											}
										}
									}
								}
							}
						}
					}
				}
			}
		}
	}
	JOINT left_hip
	{
		OFFSET	-82.8	-127.5	0.300001
		CHANNELS 3  Xrotation Yrotation Zrotation
		JOINT left_knee
		{
			OFFSET	-28.2	-396.7	2.2
			CHANNELS 3  Xrotation Yrotation Zrotation
			JOINT left_ankle
			{
				OFFSET	-11.7	-411.3	35.4
				CHANNELS 3  Xrotation Yrotation Zrotation
				JOINT left_toes
				{
					OFFSET	0	-60	-88.6
					CHANNELS 3  Xrotation Yrotation Zrotation
					JOINT left_foot_ee
					{
						OFFSET	-22.5	-16.5	-42.2
						CHANNELS 3  Xrotation Yrotation Zrotation
						End Site
						{
							OFFSET	1	0	0
						}
					}
				}
			}
		}
	}
	JOINT right_hip
	{
		OFFSET	82.8	-127.5	0.300001
		CHANNELS 3  Xrotation Yrotation Zrotation
		JOINT right_knee
		{
			OFFSET	28.2	-396.7	2.2
			CHANNELS 3  Xrotation Yrotation Zrotation
			JOINT right_ankle
			{
				OFFSET	11.7	-411.3	35.4
				CHANNELS 3  Xrotation Yrotation Zrotation
				JOINT right_toes
				{
					OFFSET	0	-60	-88.6
					CHANNELS 3  Xrotation Yrotation Zrotation
					JOINT right_foot_ee
					{
						OFFSET	22.5	-16.5	-42.2
						CHANNELS 3  Xrotation Yrotation Zrotation
						End Site
						{
							OFFSET	1	0	0
						}
					}
				}
			}
		}
	}
}
MOTION
Frames: 9
Frame Time: 0.02
1860.92 598.108 -992.285 -144.679 -58.2312 -148.399 6.31917 -0.433188 -1.92759 6.32118 -0.309676 -1.95124 6.32919 -0.110891 -1.97254 6.32401 -0.420966 -1.9303 -10.3132 2.61 5.427 -10.2314 1.2728 5.93766 -0.0 0.0 -0.0 10.081 -17.7827 19.7308 -4.91522 7.9555 59.2855 3.69815 -61.3554 2.19435 22.5759 0.235586 -2.85565 3.33085 -5.47228 20.5787 -0.0 0.0 -0.0 6.31184 -1.78681 -12.2455 -43.1755 34.2395 -57.8898 0.308071 8.67712 -0.0233725 -38.467 2.78962 -3.9484 7.56481 25.4673 -40.8794 0.0 0.0 0.0 12.9333 6.94166 1.95161 -27.4309 0.133862 4.16742 36.0266 -9.63759 -4.65636 22.3376 -0.0 -0.0 -0.0 0.0 -0.0 53.3674 17.0341 -3.76049 -11.1729 -0.296396 -1.68633 5.71355 -7.14449 0.823547 -14.6744 0.0 0.0 0.0 0.0 0.0 
1894.62 602.819 -976.338 -144.654 -59.0768 -149.483 6.28853 -0.275308 -1.64091 6.29001 -0.17035 -1.65509 6.29311 -0.00109506 -1.66384 6.28934 -0.263817 -1.64279 -10.4092 5.36262 7.6097 -10.2584 5.00874 8.74879 -0.0 0.0 -0.0 9.29652 -16.0928 18.0819 -10.1586 3.39549 59.0859 3.74729 -61.6719 2.23753 18.0712 0.278922 -2.28203 4.26174 -7.03606 26.7242 -0.0 0.0 -0.0 6.51834 -3.75746 -12.6405 -44.9408 33.6286 -56.7357 0.29466 8.30476 -0.0213923 -33.9984 2.33668 -3.59716 7.07602 26.7958 -35.9181 0.0 0.0 0.0 11.6773 14.0703 -0.111457 -29.6264 0.0581965 4.49584 32.3104 -14.9463 -4.4167 21.0795 -0.0 -0.0 -0.0 0.0 -0.0 53.5715 16.6251 -3.77867 -17.6958 -0.315949 -2.68642 6.69896 -13.2137 0.966407 -14.1091 0.0 0.0 0.0 0.0 0.0 
1917.0 603.585 -961.88 -144.937 -58.4934 -150.049 6.52859 -0.190881 -1.65159 6.5301 -0.0854137 -1.66039 6.53064 0.0770883 -1.6608 6.52684 -0.186134 -1.65213 -8.83142 5.55482 4.27094 -8.79506 7.44148 5.47644 -0.0 0.0 -0.0 9.59682 -15.9998 18.7512 -12.0546 3.47027 58.7852 3.17207 -57.5149 1.7411 19.5024 0.270045 -2.46461 4.29177 -7.9783 26.5023 -0.0 0.0 -0.0 6.81382 -3.65286 -13.2063 -44.728 34.565 -56.7386 0.291119 8.20633 -0.0208838 -34.5826 2.39431 -3.64506 7.07028 25.7912 -36.6953 0.0 0.0 0.0 12.1504 14.0902 -0.244826 -30.9963 0.00461838 4.69924 29.549 -14.6514 -4.10666 20.811 -0.0 -0.0 -0.0 0.0 -0.0 52.4927 16.6552 -4.12392 -18.2543 -0.31233 -2.77204 6.75074 -15.6253 0.978281 -13.8446 0.0 0.0 0.0 0.0 0.0 
1943.11 600.564 -947.626 -145.824 -58.2296 -150.969 6.59077 -0.143157 -1.53539 6.59208 -0.0451781 -1.54138 6.59161 0.103887 -1.53854 6.58833 -0.140371 -1.53564 -10.3579 5.31572 1.4255 -10.3822 9.06615 2.74089 -0.0 0.0 -0.0 10.3676 -15.4772 20.4912 -12.9846 4.08597 59.2297 2.89023 -55.0569 1.50662 19.1645 0.272552 -2.42152 4.27295 -8.99506 25.8703 -0.0 0.0 -0.0 6.75621 -3.94212 -13.0927 -44.7006 35.3643 -56.7401 0.386268 10.8326 -0.0366241 -35.7223 2.50814 -3.73681 7.06426 24.6725 -37.5573 0.0 0.0 0.0 11.9962 14.7391 0.281999 -32.7792 -0.0723813 4.96199 27.0969 -14.3661 -3.81763 20.5473 -0.0 -0.0 -0.0 0.0 -0.0 51.891 16.507 -4.63491 -18.6295 -0.30943 -2.82953 5.8072 -17.8483 0.848834 -14.4633 0.0 0.0 0.0 0.0 0.0 
1979.15 605.524 -937.022 -147.444 -57.4812 -152.543 6.6478 -0.0460208 -1.27119 6.6487 0.0349546 -1.27154 6.64677 0.156383 -1.26237 6.64455 -0.0449309 -1.27122 -12.0549 6.50404 -0.865619 -12.1423 12.8908 1.01706 -0.0 0.0 -0.0 10.3572 -13.8894 20.5306 -15.8197 5.20032 61.0444 2.6508 -52.7002 1.31317 18.465 0.276934 -2.33229 4.70668 -14.541 26.2519 -0.0 0.0 -0.0 6.44401 -2.74982 -12.5023 -43.9359 35.1403 -56.0356 0.46973 13.0993 -0.0539315 -36.7452 2.61185 -3.81723 7.50103 26.5584 -39.4092 0.0 0.0 0.0 14.1485 14.0217 -0.785077 -41.2812 -0.550284 6.17669 27.2136 -13.2509 -3.80407 22.7294 -0.0 -0.0 -0.0 0.0 -0.0 49.1496 16.5811 -3.73158 -19.4399 -0.301882 -2.95365 11.3485 -17.722 1.62977 -17.5138 0.0 0.0 0.0 0.0 0.0 
1999.55 613.285 -919.696 -150.528 -57.1726 -155.726 6.40758 0.0176466 -0.833322 6.40796 0.0706354 -0.830511 6.40648 0.15316 -0.819317 6.40554 0.0218466 -0.833222 -12.4082 6.62362 -2.00697 -12.5076 13.852 0.000129264 -0.0 0.0 -0.0 10.3382 -13.819 20.4907 -17.5134 7.30571 61.1046 2.32555 -49.0334 1.06075 18.2473 0.278076 -2.30451 5.45632 -21.5224 27.6721 -0.0 0.0 -0.0 6.82335 -5.39166 -13.1972 -44.1985 37.8286 -55.767 0.4702 13.1119 -0.0540382 -39.0423 2.84989 -3.99103 7.29126 25.7707 -38.433 0.0 0.0 0.0 19.024 13.6667 -2.84905 -51.4099 -1.34716 7.51405 31.4293 -12.7115 -4.26232 23.2792 -0.0 -0.0 -0.0 0.0 -0.0 48.0018 15.3694 -4.93729 -22.6642 -0.254488 -3.44607 16.1649 -15.1743 2.26498 -19.2348 0.0 0.0 0.0 0.0 0.0 
2017.6 624.453 -900.69 -151.54 -56.5311 -157.463 6.49689 0.195764 -0.374648 6.49694 0.219207 -0.361432 6.49551 0.253654 -0.338149 6.49541 0.197067 -0.373964 -12.6521 6.46094 -2.16457 -12.7514 13.6441 -0.169313 -0.0 0.0 -0.0 9.92713 -14.7314 19.5427 -19.4369 8.8728 63.1191 1.91972 -43.5559 0.767037 18.523 0.276612 -2.33969 6.21495 -27.74 28.8889 -0.0 0.0 -0.0 7.94225 -5.02948 -15.3317 -42.5704 38.0528 -54.3918 0.433364 12.1163 -0.0459934 -40.2285 2.9755 -4.07702 7.45252 25.0016 -40.3762 0.0 0.0 0.0 22.9072 12.2937 -4.40037 -58.2545 -2.01449 8.33034 36.73 -12.4267 -4.79074 23.2252 -0.0 -0.0 -0.0 0.0 -0.0 47.0108 14.7235 -5.34671 -25.0243 -0.20227 -3.80445 19.1527 -14.3317 2.64555 -20.0118 0.0 0.0 0.0 0.0 0.0 
2039.17 627.423 -893.625 -151.85 -56.544 -157.872 6.31082 0.179881 -0.498447 6.31094 0.211233 -0.485991 6.30903 0.259463 -0.462045 6.30877 0.183236 -0.497223 -12.5661 4.21735 -0.863846 -12.6071 8.55886 0.400691 -0.0 0.0 -0.0 8.96032 -13.5738 17.4611 -18.8792 7.85708 64.2176 1.39478 -34.64 0.43498 20.1872 0.264185 -2.55188 6.26263 -27.5126 29.3939 -0.0 0.0 -0.0 9.20508 -2.35827 -17.9231 -41.9562 38.8086 -53.4966 0.271214 7.65212 -0.0181379 -46.4602 3.6629 -4.48508 7.02055 19.1251 -41.6098 0.0 0.0 0.0 26.5369 10.5161 -3.60713 -62.9467 -2.52643 8.84186 38.7521 -13.3877 -5.00486 24.6495 -0.0 -0.0 -0.0 0.0 -0.0 44.853 15.0902 -5.26255 -22.3235 -0.260805 -3.39417 17.6394 -13.3775 2.44752 -24.4811 0.0 0.0 0.0 0.0 0.0 
2050.58 624.883 -885.689 -151.112 -56.0317 -156.775 6.30955 0.317066 -0.485571 6.30961 0.347321 -0.464412 6.30675 0.392678 -0.426748 6.30664 0.320354 -0.483408 -12.629 4.21053 -0.872347 -12.6703 8.55198 0.395279 -0.0 0.0 -0.0 9.12233 -12.6516 17.8505 -20.0814 7.9868 65.6469 1.36036 -33.9736 0.415581 20.1389 0.264632 -2.54573 6.25627 -27.4018 29.43 -0.0 0.0 -0.0 9.31076 -1.29638 -18.1858 -40.9411 39.3278 -53.0108 0.286382 8.07458 -0.0202132 -46.4607 3.66296 -4.48511 7.01944 19.1339 -41.5935 0.0 0.0 0.0 27.8652 9.8809 -3.225 -62.8289 -2.51307 8.82953 38.7544 -13.3613 -5.0043 24.6553 -0.0 -0.0 -0.0 0.0 -0.0 44.8506 15.0873 -5.26864 -22.3239 -0.260798 -3.39423 17.6397 -13.379 2.44757 -24.4814 0.0 0.0 0.0 0.0 0.0 
